<mxfile host="app.diagrams.net" agent="Mozilla/5.0 (Windows NT 10.0; Win64; x64; rv:143.0) Gecko/20100101 Firefox/143.0" version="28.2.5">
  <diagram name="Page-1" id="aifWkVO3JK2slyDNObwi">
    <mxGraphModel grid="1" page="1" gridSize="10" guides="1" tooltips="1" connect="1" arrows="1" fold="1" pageScale="1" pageWidth="827" pageHeight="1169" math="0" shadow="0">
      <root>
        <mxCell id="0" />
        <mxCell id="1" parent="0" />
        <mxCell id="0Sv8y2tcNExDmwT2a1vy-2" value="V_historial" style="rounded=0;whiteSpace=wrap;html=1;fillColor=#ffe6cc;strokeColor=#d79b00;" vertex="1" parent="1">
          <mxGeometry x="-670" y="-1140" width="120" height="60" as="geometry" />
        </mxCell>
        <mxCell id="0Sv8y2tcNExDmwT2a1vy-5" value="Actor" style="shape=umlActor;verticalLabelPosition=bottom;verticalAlign=top;html=1;outlineConnect=0;" vertex="1" parent="1">
          <mxGeometry x="-780" y="-1140" width="30" height="60" as="geometry" />
        </mxCell>
        <mxCell id="0Sv8y2tcNExDmwT2a1vy-6" style="edgeStyle=orthogonalEdgeStyle;rounded=0;orthogonalLoop=1;jettySize=auto;html=1;exitX=0.5;exitY=1;exitDx=0;exitDy=0;" edge="1" parent="1" source="0Sv8y2tcNExDmwT2a1vy-2" target="0Sv8y2tcNExDmwT2a1vy-2">
          <mxGeometry relative="1" as="geometry" />
        </mxCell>
        <mxCell id="0Sv8y2tcNExDmwT2a1vy-7" value="" style="endArrow=none;dashed=1;html=1;dashPattern=1 3;strokeWidth=2;rounded=0;entryX=0.5;entryY=0.5;entryDx=0;entryDy=0;entryPerimeter=0;" edge="1" parent="1" target="0Sv8y2tcNExDmwT2a1vy-5">
          <mxGeometry width="50" height="50" relative="1" as="geometry">
            <mxPoint x="-765" y="-570" as="sourcePoint" />
            <mxPoint x="-743" y="-1010" as="targetPoint" />
          </mxGeometry>
        </mxCell>
        <mxCell id="0Sv8y2tcNExDmwT2a1vy-33" value="C_cart" style="rounded=0;whiteSpace=wrap;html=1;fillColor=#e1d5e7;strokeColor=#9673a6;" vertex="1" parent="1">
          <mxGeometry x="-480" y="-1140" width="120" height="60" as="geometry" />
        </mxCell>
        <mxCell id="0Sv8y2tcNExDmwT2a1vy-35" value="" style="endArrow=classic;html=1;rounded=0;" edge="1" parent="1">
          <mxGeometry width="50" height="50" relative="1" as="geometry">
            <mxPoint x="-760" y="-1010" as="sourcePoint" />
            <mxPoint x="-610" y="-1010" as="targetPoint" />
          </mxGeometry>
        </mxCell>
        <mxCell id="0Sv8y2tcNExDmwT2a1vy-36" value="Click &quot;Agregar Todos al Carrito&quot;" style="text;html=1;align=center;verticalAlign=middle;resizable=0;points=[];autosize=1;strokeColor=none;fillColor=none;" vertex="1" parent="1">
          <mxGeometry x="-770" y="-1040" width="190" height="30" as="geometry" />
        </mxCell>
        <mxCell id="0Sv8y2tcNExDmwT2a1vy-37" value="" style="endArrow=classic;html=1;rounded=0;" edge="1" parent="1">
          <mxGeometry width="50" height="50" relative="1" as="geometry">
            <mxPoint x="-610" y="-980" as="sourcePoint" />
            <mxPoint x="-610" y="-960" as="targetPoint" />
            <Array as="points">
              <mxPoint x="-530" y="-980" />
              <mxPoint x="-530" y="-960" />
            </Array>
          </mxGeometry>
        </mxCell>
        <mxCell id="0Sv8y2tcNExDmwT2a1vy-38" value="Itera sobre todos los items" style="text;html=1;align=center;verticalAlign=middle;resizable=0;points=[];autosize=1;strokeColor=none;fillColor=none;" vertex="1" parent="1">
          <mxGeometry x="-610" y="-1012" width="160" height="30" as="geometry" />
        </mxCell>
        <mxCell id="0Sv8y2tcNExDmwT2a1vy-39" value="" style="endArrow=classic;html=1;rounded=0;" edge="1" parent="1">
          <mxGeometry width="50" height="50" relative="1" as="geometry">
            <mxPoint x="-610" y="-890" as="sourcePoint" />
            <mxPoint x="-420" y="-890" as="targetPoint" />
          </mxGeometry>
        </mxCell>
        <mxCell id="0Sv8y2tcNExDmwT2a1vy-40" value="POST /api/cart(productId, quantity)" style="text;html=1;align=center;verticalAlign=middle;resizable=0;points=[];autosize=1;strokeColor=none;fillColor=none;" vertex="1" parent="1">
          <mxGeometry x="-615" y="-922" width="210" height="30" as="geometry" />
        </mxCell>
        <mxCell id="0Sv8y2tcNExDmwT2a1vy-41" value="" style="endArrow=classic;html=1;rounded=0;dashed=1;" edge="1" parent="1">
          <mxGeometry width="50" height="50" relative="1" as="geometry">
            <mxPoint x="-420" y="-850" as="sourcePoint" />
            <mxPoint x="-610" y="-850" as="targetPoint" />
          </mxGeometry>
        </mxCell>
        <mxCell id="0Sv8y2tcNExDmwT2a1vy-42" value="Retorna error" style="text;html=1;align=center;verticalAlign=middle;resizable=0;points=[];autosize=1;strokeColor=none;fillColor=none;" vertex="1" parent="1">
          <mxGeometry x="-565" y="-882" width="90" height="30" as="geometry" />
        </mxCell>
        <mxCell id="0Sv8y2tcNExDmwT2a1vy-43" value="Muestra el pop up de confirmacion de los productos sin error" style="text;html=1;align=center;verticalAlign=middle;resizable=0;points=[];autosize=1;strokeColor=none;fillColor=none;" vertex="1" parent="1">
          <mxGeometry x="-770" y="-710" width="350" height="30" as="geometry" />
        </mxCell>
        <mxCell id="0Sv8y2tcNExDmwT2a1vy-44" value="" style="endArrow=classic;html=1;rounded=0;" edge="1" parent="1">
          <mxGeometry width="50" height="50" relative="1" as="geometry">
            <mxPoint x="-615" y="-678" as="sourcePoint" />
            <mxPoint x="-765" y="-678" as="targetPoint" />
          </mxGeometry>
        </mxCell>
        <mxCell id="0Sv8y2tcNExDmwT2a1vy-45" value="" style="endArrow=classic;html=1;rounded=0;" edge="1" parent="1">
          <mxGeometry width="50" height="50" relative="1" as="geometry">
            <mxPoint x="-610" y="-810" as="sourcePoint" />
            <mxPoint x="-610" y="-790" as="targetPoint" />
            <Array as="points">
              <mxPoint x="-550" y="-810" />
              <mxPoint x="-550" y="-790" />
            </Array>
          </mxGeometry>
        </mxCell>
        <mxCell id="0Sv8y2tcNExDmwT2a1vy-46" value="Maneja el error" style="text;html=1;align=center;verticalAlign=middle;resizable=0;points=[];autosize=1;strokeColor=none;fillColor=none;" vertex="1" parent="1">
          <mxGeometry x="-610" y="-832" width="100" height="30" as="geometry" />
        </mxCell>
        <mxCell id="0Sv8y2tcNExDmwT2a1vy-48" value="" style="endArrow=classic;html=1;rounded=0;" edge="1" parent="1">
          <mxGeometry width="50" height="50" relative="1" as="geometry">
            <mxPoint x="-610" y="-768" as="sourcePoint" />
            <mxPoint x="-610" y="-748" as="targetPoint" />
            <Array as="points">
              <mxPoint x="-550" y="-768" />
              <mxPoint x="-550" y="-748" />
            </Array>
          </mxGeometry>
        </mxCell>
        <mxCell id="0Sv8y2tcNExDmwT2a1vy-49" value="Sigue con el siguiente producto" style="text;html=1;align=center;verticalAlign=middle;resizable=0;points=[];autosize=1;strokeColor=none;fillColor=none;" vertex="1" parent="1">
          <mxGeometry x="-615" y="-790" width="190" height="30" as="geometry" />
        </mxCell>
        <mxCell id="0Sv8y2tcNExDmwT2a1vy-50" value="" style="endArrow=none;dashed=1;html=1;dashPattern=1 3;strokeWidth=2;rounded=0;entryX=0.5;entryY=1;entryDx=0;entryDy=0;" edge="1" parent="1" target="0Sv8y2tcNExDmwT2a1vy-2">
          <mxGeometry width="50" height="50" relative="1" as="geometry">
            <mxPoint x="-610" y="-570" as="sourcePoint" />
            <mxPoint x="-560" y="-840" as="targetPoint" />
          </mxGeometry>
        </mxCell>
        <mxCell id="0Sv8y2tcNExDmwT2a1vy-51" value="" style="endArrow=none;dashed=1;html=1;dashPattern=1 3;strokeWidth=2;rounded=0;entryX=0.5;entryY=1;entryDx=0;entryDy=0;" edge="1" parent="1" target="0Sv8y2tcNExDmwT2a1vy-33">
          <mxGeometry width="50" height="50" relative="1" as="geometry">
            <mxPoint x="-420" y="-570" as="sourcePoint" />
            <mxPoint x="-560" y="-910" as="targetPoint" />
          </mxGeometry>
        </mxCell>
      </root>
    </mxGraphModel>
  </diagram>
</mxfile>
